<?xml version="1.0" encoding="utf-8"?>
<svg viewBox="0 0 162.666 53.336" xmlns="http://www.w3.org/2000/svg" xmlns:bx="https://boxy-svg.com">
  <defs>
    <style bx:fonts="Asap">@import url(https://fonts.googleapis.com/css2?family=Asap%3Aital%2Cwght%400%2C400%3B0%2C500%3B0%2C600%3B0%2C700%3B1%2C400%3B1%2C500%3B1%2C600%3B1%2C700&amp;display=swap);</style>
  </defs>
  <text style="fill: rgb(221, 221, 221); font-family: Arial, sans-serif; font-size: 11.1px; paint-order: fill; stroke: rgb(221, 221, 221); stroke-linecap: round; stroke-width: 0.855482px; white-space: pre;" transform="matrix(2.8999, 0, 0, 3.98166, -105.171082, -111.255936)" x="44.972" y="37.917">Symb  lic</text>
  <path d="M 114.269 17.109 C 112.511 17.824 110.451 19.504 109.684 20.85 L 109.166 21.76 L 112.781 20.438 C 116.984 18.899 117.5 18.851 118.945 19.877 C 120.5 20.982 120.323 21.218 117.276 22.059 C 100.14 26.798 93.132 38.069 106.855 38.816 C 109.705 38.972 109.97 39.059 111.247 40.265 C 116.362 45.089 123.334 42.719 125.94 35.273 C 126.455 33.794 127.101 33.089 129.406 31.471 C 136.329 26.62 136.53 22.03 129.877 20.757 L 128.549 20.503 L 129.185 21.912 C 129.534 22.685 130.101 23.622 130.447 23.989 C 132.178 25.841 126.104 31.029 119.169 33.627 C 115.946 34.832 115.762 35.028 116.553 36.413 L 117.038 37.268 L 119.072 36.577 C 121.487 35.755 121.852 35.888 120.986 37.283 C 120.085 38.736 118.12 40.218 117.095 40.218 C 114.15 40.218 111.145 35.022 111.13 29.906 L 111.123 27.342 L 114.023 26.094 C 116.978 24.817 121.371 23.533 121.799 23.818 C 121.929 23.905 122.309 24.964 122.643 26.173 L 123.25 28.37 L 124.929 27.215 L 126.608 26.058 L 125.976 24.176 C 123.984 18.234 118.958 15.199 114.269 17.109 M 105.307 31.269 C 102.287 34.034 102.838 36.261 106.54 36.261 L 108.229 36.261 L 107.887 34.364 C 107.697 33.322 107.395 31.875 107.212 31.15 L 106.882 29.831 L 105.307 31.269" fill-rule="evenodd" style="fill: rgb(85, 96, 218); stroke: rgba(85, 96, 218, 0.85);"/>
  <text style="fill: rgb(85, 96, 218); font-family: Asap; font-size: 11.1px; font-style: italic; stroke: rgb(85, 96, 218); stroke-linecap: round; stroke-linejoin: round; white-space: pre;" x="29.411" y="33.729" transform="matrix(1.580999, 0, 0, 1.466521, -42.37188, -32.909172)">i4s</text>
</svg>